<svg width="16" height="16" viewBox="0 0 16 16" fill="none" xmlns="http://www.w3.org/2000/svg">
<path d="M6.00146 5.5C6.00146 6.32843 5.32989 7 4.50146 7C3.67304 7 3.00146 6.32843 3.00146 5.5C3.00146 4.67157 3.67304 4 4.50146 4C5.32989 4 6.00146 4.67157 6.00146 5.5Z" fill="#000000"/>
<path d="M2.00146 1C0.896895 1 0.00146484 1.89543 0.00146484 3V13C0.00146484 14.1046 0.896895 15 2.00146 15H14.0015C15.106 15 16.0015 14.1046 16.0015 13V3C16.0015 1.89543 15.106 1 14.0015 1H2.00146ZM14.0015 2C14.5537 2 15.0015 2.44772 15.0015 3V9.50001L11.2251 7.5528C11.0326 7.45655 10.8001 7.49428 10.6479 7.64646L6.93776 11.3566L4.27882 9.58399C4.0805 9.45178 3.81644 9.47793 3.64791 9.64646L1.00146 12V3C1.00146 2.44772 1.44918 2 2.00146 2H14.0015Z" fill="#000000"/>
</svg>
